<?xml version="1.0" encoding="UTF-8" standalone="no"?>
<!DOCTYPE svg PUBLIC "-//W3C//DTD SVG 1.1//EN" "http://www.w3.org/Graphics/SVG/1.1/DTD/svg11.dtd">
<svg width="100%" height="100%" viewBox="0 0 348 427" version="1.1" xmlns="http://www.w3.org/2000/svg" xmlns:xlink="http://www.w3.org/1999/xlink" xml:space="preserve" xmlns:serif="http://www.serif.com/" style="fill-rule:evenodd;clip-rule:evenodd;stroke-linejoin:round;stroke-miterlimit:2;">
    <g>
        <path d="M233.398,154.703C227.875,154.703 223.398,159.18 223.398,164.703L223.398,353.703C223.398,359.223 227.875,363.703 233.398,363.703C238.922,363.703 243.398,359.223 243.398,353.703L243.398,164.703C243.398,159.18 238.922,154.703 233.398,154.703Z" style="fill:white;fill-rule:nonzero;"/>
        <path d="M115.398,154.703C109.875,154.703 105.398,159.18 105.398,164.703L105.398,353.703C105.398,359.223 109.875,363.703 115.398,363.703C120.922,363.703 125.398,359.223 125.398,353.703L125.398,164.703C125.398,159.18 120.922,154.703 115.398,154.703Z" style="fill:white;fill-rule:nonzero;"/>
        <path d="M29.398,127.121L29.398,373.5C29.398,388.062 34.738,401.738 44.066,411.551C53.352,421.391 66.273,426.977 79.797,427L269,427C282.527,426.977 295.449,421.391 304.73,411.551C314.059,401.738 319.398,388.062 319.398,373.5L319.398,127.121C337.941,122.199 349.957,104.285 347.477,85.258C344.992,66.234 328.785,52.004 309.598,52L258.398,52L258.398,39.5C258.457,28.988 254.301,18.895 246.859,11.469C239.418,4.047 229.309,-0.086 218.797,0L130,0C119.488,-0.086 109.379,4.047 101.938,11.469C94.496,18.895 90.34,28.988 90.397,39.5L90.397,52L39.199,52C20.012,52.004 3.805,66.234 1.32,85.258C-1.16,104.285 10.855,122.199 29.398,127.121ZM269,407L79.797,407C62.699,407 49.398,392.312 49.398,373.5L49.398,128L299.398,128L299.398,373.5C299.398,392.312 286.098,407 269,407ZM110.398,39.5C110.332,34.293 112.379,29.281 116.074,25.605C119.766,21.93 124.789,19.91 130,20L218.797,20C224.008,19.91 229.031,21.93 232.723,25.605C236.418,29.277 238.465,34.293 238.398,39.5L238.398,52L110.398,52L110.398,39.5ZM39.199,72L309.598,72C319.539,72 327.598,80.059 327.598,90C327.598,99.941 319.539,108 309.598,108L39.199,108C29.258,108 21.199,99.941 21.199,90C21.199,80.059 29.258,72 39.199,72Z" style="fill:white;fill-rule:nonzero;"/>
        <path d="M174.398,154.703C168.875,154.703 164.398,159.18 164.398,164.703L164.398,353.703C164.398,359.223 168.875,363.703 174.398,363.703C179.922,363.703 184.398,359.223 184.398,353.703L184.398,164.703C184.398,159.18 179.922,154.703 174.398,154.703Z" style="fill:white;fill-rule:nonzero;"/>
    </g>
</svg>
